<?xml version="1.0" encoding="UTF-8" standalone="no"?>
<!-- Created with Inkscape (http://www.inkscape.org/) -->

<svg
   version="1.1"
   id="svg189"
   width="220"
   height="220"
   viewBox="0 0 220 220"
   sodipodi:docname="icon.svg"
   inkscape:version="1.1.1 (3bf5ae0d25, 2021-09-20)"
   xmlns:inkscape="http://www.inkscape.org/namespaces/inkscape"
   xmlns:sodipodi="http://sodipodi.sourceforge.net/DTD/sodipodi-0.dtd"
   xmlns="http://www.w3.org/2000/svg"
   xmlns:svg="http://www.w3.org/2000/svg">
  <defs
     id="defs193" />
  <sodipodi:namedview
     id="namedview191"
     pagecolor="#505050"
     bordercolor="#ffffff"
     borderopacity="1"
     inkscape:pageshadow="0"
     inkscape:pageopacity="0"
     inkscape:pagecheckerboard="1"
     showgrid="false"
     inkscape:zoom="2.6218227"
     inkscape:cx="113.47068"
     inkscape:cy="101.45614"
     inkscape:window-width="1440"
     inkscape:window-height="890"
     inkscape:window-x="-6"
     inkscape:window-y="-6"
     inkscape:window-maximized="1"
     inkscape:current-layer="g195" />
  <g
     inkscape:groupmode="layer"
     inkscape:label="Image"
     id="g195">
    <path
       style="fill:#000000;stroke-width:1.48871"
       d="M 94.494785,195.91605 C 73.061905,169.54517 66.160181,161.19045 60.21004,154.41344 57.283519,151.08024 50.938085,143.60148 46.109072,137.79401 41.28006,131.98652 36.989444,126.89499 36.574367,126.47951 31.4962,121.39633 21.047019,106.9267 17.865354,100.57195 14.164671,93.180572 13.816518,91.05339 13.816518,75.834003 c 0,-15.827598 0.242541,-17.158648 4.903521,-26.910316 5.930968,-12.408718 16.728247,-23.71803 28.834666,-30.202072 8.19708,-4.39025 9.858593,-4.716837 24.203482,-4.757437 14.545697,-0.04117 15.906099,0.22759 24.463334,4.832888 4.983629,2.682063 9.478209,5.571579 9.987999,6.421147 1.60417,2.673419 5.18345,1.710393 13.73454,-3.695353 11.30524,-7.146846 24.17143,-10.090437 35.91611,-8.217064 21.79294,3.47616 40.69589,19.518852 48.7906,41.407953 4.14375,11.205279 3.85057,33.652716 -0.57033,43.667272 -2.80671,6.357939 -12.47502,19.806519 -21.82951,30.364769 -1.47247,1.66195 -8.27995,9.82058 -15.1277,18.1303 -6.84776,8.30971 -14.54959,17.48819 -17.11516,20.39658 -7.09956,8.04825 -33.1544,39.172 -36.1995,43.24202 -1.47916,1.97702 -3.1294,3.56199 -3.6672,3.52215 -0.53778,-0.0399 -7.57876,-8.19419 -15.646585,-18.12079 z M 77.625699,100.94446 c 0,-2.298963 -1.015656,-2.842524 -5.089109,-2.723589 -2.799009,0.08173 -5.498091,-0.272665 -5.997957,-0.78752 -0.499868,-0.514855 1.79023,-3.447657 5.089108,-6.517358 3.826271,-3.560443 5.997958,-6.885207 5.997958,-9.182603 0,-3.47443 -0.387698,-3.601341 -11.001584,-3.601341 -9.971271,0 -11.001583,0.27901 -11.001583,2.979154 0,2.553834 0.837673,2.906015 5.867511,2.466779 3.227131,-0.281805 5.867511,-0.06073 5.867511,0.491376 0,0.552052 -2.64038,3.659298 -5.867511,6.904984 -3.479672,3.499691 -5.867511,7.313625 -5.867511,9.371778 0,3.31163 0.50368,3.47051 11.001583,3.47051 9.83273,0 11.001584,-0.30515 11.001584,-2.87217 z m 39.605711,-0.90497 c 0,-3.58862 -0.41868,-3.777145 -8.38865,-3.777145 h -8.38862 l 8.38862,-8.731233 c 6.07469,-6.322806 8.38865,-9.865254 8.38865,-12.842295 v -4.111059 h -13.93536 c -13.886433,0 -13.935327,0.01359 -13.935327,3.777145 0,3.588636 0.418667,3.777146 8.388626,3.777146 h 8.388611 l -8.388611,8.731248 c -6.074689,6.322805 -8.388626,9.865254 -8.388626,12.842293 v 4.11104 h 13.935327 c 13.88647,0 13.93536,-0.0136 13.93536,-3.77714 z m 48.40696,-0.755429 v -4.532574 h -10.42356 -10.42354 l 10.42354,-11.909293 c 8.21852,-9.389969 10.42356,-12.905705 10.42356,-16.619439 V 61.512609 H 148.03583 130.4333 v 4.463544 c 0,4.459192 0.0106,4.463981 9.90143,4.910288 l 9.90143,0.446746 -10.28801,11.331436 c -8.98021,9.891013 -10.22705,11.955631 -9.80849,16.241724 l 0.47952,4.910283 h 17.50959 17.5096 z"
       id="path217"
       sodipodi:nodetypes="sssssssssssssssssssssssssssssssssssscsscssscsscssccccsscccsscsscccc" />
  </g>
</svg>
